<?xml version="1.0" encoding="UTF-8" standalone="no"?>
<!-- Created with Inkscape (http://www.inkscape.org/) -->

<svg
   width="128.00002"
   height="256.00003"
   viewBox="0 0 33.866668 67.73334"
   version="1.1"
   id="svg8"
   inkscape:version="1.4.4 (dcaf3e7d9e, 2026-05-05)"
   sodipodi:docname="goose.svg"
   inkscape:export-filename="goose.png"
   inkscape:export-xdpi="383.99997"
   inkscape:export-ydpi="383.99997"
   xmlns:inkscape="http://www.inkscape.org/namespaces/inkscape"
   xmlns:sodipodi="http://sodipodi.sourceforge.net/DTD/sodipodi-0.dtd"
   xmlns="http://www.w3.org/2000/svg"
   xmlns:svg="http://www.w3.org/2000/svg"
   xmlns:rdf="http://www.w3.org/1999/02/22-rdf-syntax-ns#"
   xmlns:cc="http://creativecommons.org/ns#"
   xmlns:dc="http://purl.org/dc/elements/1.1/">
  <defs
     id="defs2" />
  <sodipodi:namedview
     id="base"
     pagecolor="#ffffff"
     bordercolor="#666666"
     borderopacity="1.0"
     inkscape:pageopacity="0.0"
     inkscape:pageshadow="2"
     inkscape:zoom="3.0519895"
     inkscape:cx="76.015988"
     inkscape:cy="184.96132"
     inkscape:document-units="mm"
     inkscape:current-layer="layer1"
     showgrid="true"
     units="px"
     borderlayer="true"
     inkscape:showpageshadow="false"
     inkscape:window-width="1414"
     inkscape:window-height="844"
     inkscape:window-x="0"
     inkscape:window-y="0"
     inkscape:window-maximized="0"
     inkscape:snap-bbox="true"
     inkscape:object-nodes="false"
     inkscape:snap-others="false"
     fit-margin-top="0"
     fit-margin-left="0"
     fit-margin-right="0"
     fit-margin-bottom="0"
     inkscape:pagecheckerboard="false"
     inkscape:snap-bbox-midpoints="false"
     inkscape:snap-bbox-edge-midpoints="false"
     inkscape:bbox-nodes="true"
     inkscape:deskcolor="#d1d1d1">
    <inkscape:grid
       type="xygrid"
       id="grid815"
       spacingx="0.52916667"
       spacingy="0.52916667"
       empspacing="1"
       dotted="false"
       originx="0"
       originy="0"
       units="px" />
  </sodipodi:namedview>
  <metadata
     id="metadata5">
    <rdf:RDF>
      <cc:Work
         rdf:about="">
        <dc:format>image/svg+xml</dc:format>
        <dc:type
           rdf:resource="http://purl.org/dc/dcmitype/StillImage" />
      </cc:Work>
    </rdf:RDF>
  </metadata>
  <g
     inkscape:label="Layer 1"
     inkscape:groupmode="layer"
     id="layer1"
     transform="translate(0,-280.06665)">
    <path
       id="path233"
       style="fill:#a8bde3;fill-opacity:1;stroke:none;stroke-width:0.79375;stroke-miterlimit:4;stroke-dasharray:none;stroke-opacity:1"
       d="m 5.8208333,282.18332 v 0.52916 H 5.2916667 4.7625 v 0.52917 H 4.2333333 3.7041667 v 0.52917 H 3.175 2.6458333 v 0.52916 H 2.1166667 v 0.52917 h 0.5291666 v 0.52917 H 3.175 3.7041667 v 0.52916 H 4.2333333 4.7625 v 0.52917 h 0.5291667 0.5291666 v 0.52917 0.52916 0.52917 0.52917 0.52916 0.52917 0.52917 0.52916 0.52917 0.52917 0.52916 H 5.2916667 v 0.52917 0.52917 0.52916 0.52917 0.52917 h 0.5291666 v 0.52916 0.52917 H 6.35 v 0.52917 h 0.5291667 0.5291666 v 0.52916 H 7.9375 8.4666667 8.9958333 9.525 10.054167 10.583333 11.1125 11.641667 12.170833 12.7 v -0.52916 h 0.529167 v -0.52917 -0.52917 -0.52916 h 0.529166 v -0.52917 -0.52917 H 14.2875 v -0.52916 h 0.529167 v -0.52917 h 0.529166 v -0.52917 h -0.529166 v -0.52916 H 14.2875 13.758333 13.229167 12.7 12.170833 v -0.52917 H 11.641667 11.1125 v -0.52917 H 10.583333 10.054167 9.525 8.9958333 8.4666667 v -0.52916 -0.52917 -0.52917 -0.52916 -0.52917 -0.52917 -0.52916 -0.52917 -0.52917 -0.52916 -0.52917 -0.52917 -0.52916 -0.52917 H 7.9375 v -0.52917 H 7.4083333 v -0.52916 H 6.8791667 6.35 Z m 20.6374997,0 v 0.52916 h -0.529166 v 0.52917 H 25.4 v 0.52917 0.52916 0.52917 0.52917 0.52916 0.52917 0.52917 0.52916 0.52917 0.52917 0.52916 0.52917 0.52917 0.52916 H 24.870833 24.341667 23.8125 23.283333 22.754167 v 0.52917 H 22.225 21.695833 v 0.52917 H 21.166667 20.6375 20.108333 19.579167 19.05 v 0.52916 h -0.529167 v 0.52917 H 19.05 v 0.52917 h 0.529167 v 0.52916 h 0.529166 v 0.52917 0.52917 H 20.6375 v 0.52916 0.52917 0.52917 h 0.529167 v 0.52916 h 0.529166 0.529167 0.529167 0.529166 0.529167 0.529167 0.529166 0.529167 0.529167 0.529166 v -0.52916 h 0.529167 0.529167 v -0.52917 h 0.529166 v -0.52917 -0.52916 H 28.575 v -0.52917 -0.52917 -0.52916 -0.52917 -0.52917 h -0.529167 v -0.52916 -0.52917 -0.52917 -0.52916 -0.52917 -0.52917 -0.52916 -0.52917 -0.52917 -0.52916 -0.52917 H 28.575 29.104167 v -0.52917 h 0.529166 0.529167 v -0.52916 h 0.529167 0.529166 v -0.52917 H 31.75 v -0.52917 h -0.529167 v -0.52916 H 30.691667 30.1625 v -0.52917 h -0.529167 -0.529166 v -0.52917 H 28.575 28.045833 v -0.52916 H 27.516667 26.9875 Z M 5.8208333,297.52915 v 0.52917 H 5.2916667 4.7625 v 0.52916 H 4.2333333 3.7041667 v 0.52917 H 3.175 2.6458333 v 0.52917 H 2.1166667 v 0.52916 h 0.5291666 v 0.52917 H 3.175 3.7041667 v 0.52917 H 4.2333333 4.7625 v 0.52916 h 0.5291667 0.5291666 v 0.52917 0.52917 0.52916 0.52917 0.52917 0.52916 0.52917 0.52917 0.52916 0.52917 0.52917 H 5.2916667 v 0.52916 0.52917 0.52917 0.52916 0.52917 h 0.5291666 v 0.52917 0.52916 H 6.35 v 0.52917 h 0.5291667 0.5291666 v 0.52917 H 7.9375 8.4666667 8.9958333 v 0.52916 0.52917 H 8.4666667 7.9375 v 0.52917 H 8.4666667 8.9958333 9.525 v -0.52917 -0.52917 -0.52916 h 0.529167 0.529166 0.529167 v 0.52916 0.52917 h -0.529167 -0.529166 v 0.52917 h 0.529166 0.529167 0.529167 v -0.52917 -0.52917 -0.52916 H 12.170833 12.7 v -0.52917 h 0.529167 v -0.52917 -0.52916 -0.52917 h 0.529166 v -0.52917 -0.52916 H 14.2875 v -0.52917 h 0.529167 v -0.52917 h 0.529166 v -0.52916 h -0.529166 v -0.52917 H 14.2875 13.758333 13.229167 12.7 12.170833 v -0.52917 H 11.641667 11.1125 v -0.52916 H 10.583333 10.054167 9.525 8.9958333 8.4666667 v -0.52917 -0.52917 -0.52916 -0.52917 -0.52917 -0.52916 -0.52917 -0.52917 -0.52916 -0.52917 -0.52917 -0.52916 -0.52917 -0.52917 H 7.9375 v -0.52916 H 7.4083333 v -0.52917 H 6.8791667 6.35 Z m 20.6374997,0 v 0.52917 h -0.529166 v 0.52916 H 25.4 v 0.52917 0.52917 0.52916 0.52917 0.52917 0.52916 0.52917 0.52917 0.52916 0.52917 0.52917 0.52916 0.52917 0.52917 H 24.870833 24.341667 23.8125 23.283333 22.754167 v 0.52916 H 22.225 21.695833 v 0.52917 H 21.166667 20.6375 20.108333 19.579167 19.05 v 0.52917 h -0.529167 v 0.52916 H 19.05 v 0.52917 h 0.529167 v 0.52917 h 0.529166 v 0.52916 0.52917 H 20.6375 v 0.52917 0.52916 0.52917 h 0.529167 v 0.52917 H 21.695833 22.225 v 0.52916 0.52917 0.52917 h 0.529167 0.529166 0.529167 v -0.52917 h -0.529167 -0.529166 v -0.52917 -0.52916 h 0.529166 0.529167 0.529167 v 0.52916 0.52917 0.52917 H 24.870833 25.4 25.929167 v -0.52917 H 25.4 24.870833 v -0.52917 -0.52916 H 25.4 h 0.529167 0.529166 v -0.52917 h 0.529167 0.529167 v -0.52917 h 0.529166 v -0.52916 -0.52917 H 28.575 v -0.52917 -0.52916 -0.52917 -0.52917 -0.52916 h -0.529167 v -0.52917 -0.52917 -0.52916 -0.52917 -0.52917 -0.52916 -0.52917 -0.52917 -0.52916 -0.52917 -0.52917 H 28.575 29.104167 v -0.52916 h 0.529166 0.529167 v -0.52917 h 0.529167 0.529166 v -0.52917 H 31.75 v -0.52916 h -0.529167 v -0.52917 H 30.691667 30.1625 v -0.52917 h -0.529167 -0.529166 v -0.52916 H 28.575 28.045833 v -0.52917 H 27.516667 26.9875 Z M 5.8208333,314.46248 v 0.52917 H 5.2916667 4.7625 v 0.52917 H 4.2333333 3.7041667 v 0.52916 H 3.175 2.6458333 v 0.52917 H 2.1166667 v 0.52917 h 0.5291666 v 0.52916 H 3.175 3.7041667 v 0.52917 H 4.2333333 4.7625 v 0.52917 h 0.5291667 0.5291666 v 0.52916 0.52917 0.52917 0.52916 0.52917 0.52917 0.52916 0.52917 0.52917 0.52916 0.52917 H 5.2916667 v 0.52917 0.52916 0.52917 0.52917 0.52916 h 0.5291666 v 0.52917 0.52917 H 6.35 v 0.52916 h 0.5291667 0.5291666 v 0.52917 H 7.9375 8.4666667 8.9958333 v 0.52917 H 8.4666667 7.9375 v 0.52916 H 8.4666667 8.9958333 9.525 v -0.52916 -0.52917 h 0.529167 0.529166 0.529167 v 0.52917 0.52916 h -0.529167 -0.529166 v 0.52917 h 0.529166 0.529167 0.529167 v -0.52917 -0.52916 -0.52917 H 12.170833 12.7 v -0.52917 h 0.529167 v -0.52916 -0.52917 -0.52917 h 0.529166 v -0.52916 -0.52917 H 14.2875 v -0.52917 -0.52916 h 0.529167 l 2e-6,-0.52917 h 0.529164 v -0.52917 h -0.529166 v -0.52916 H 14.2875 13.758333 13.229167 v 0.52916 H 12.7 12.170833 v -0.52916 H 11.641667 11.1125 v -0.52917 H 10.583333 10.054167 9.525 8.9958333 8.4666667 v -0.52917 -0.52916 -0.52917 -0.52917 -0.52916 -0.52917 -0.52917 -0.52916 -0.52917 -0.52917 -0.52916 -0.52917 -0.52917 -0.52916 H 7.9375 v -0.52917 H 7.4083333 v -0.52917 H 6.8791667 6.35 Z m 20.6374997,0 v 0.52917 h -0.529166 v 0.52917 H 25.4 v 0.52916 0.52917 0.52917 0.52916 0.52917 0.52917 0.52916 0.52917 0.52917 0.52916 0.52917 0.52917 0.52916 0.52917 H 24.870833 24.341667 23.8125 23.283333 22.754167 v 0.52917 H 22.225 21.695833 v 0.52916 H 21.166667 20.6375 v -0.52916 H 20.108333 19.579167 19.05 v 0.52916 h -0.529167 v 0.52917 H 19.05 v 0.52917 h 0.529167 v 0.52916 0.52917 h 0.529166 v 0.52917 0.52916 H 20.6375 v 0.52917 0.52917 0.52916 h 0.529167 v 0.52917 H 21.695833 22.225 v 0.52917 0.52916 0.52917 h 0.529167 0.529166 0.529167 v -0.52917 h -0.529167 -0.529166 v -0.52916 -0.52917 h 0.529166 0.529167 0.529167 v 0.52917 0.52916 H 24.870833 25.4 25.929167 v -0.52916 H 25.4 24.870833 v -0.52917 H 25.4 h 0.529167 0.529166 v -0.52917 h 0.529167 0.529167 v -0.52916 h 0.529166 v -0.52917 -0.52917 H 28.575 v -0.52916 -0.52917 -0.52917 -0.52916 -0.52917 h -0.529167 v -0.52917 -0.52916 -0.52917 -0.52917 -0.52916 -0.52917 -0.52917 -0.52916 -0.52917 -0.52917 -0.52916 H 28.575 29.104167 v -0.52917 h 0.529166 0.529167 v -0.52917 h 0.529167 0.529166 v -0.52916 H 31.75 v -0.52917 h -0.529167 v -0.52917 H 30.691667 30.1625 v -0.52916 h -0.529167 -0.529166 v -0.52917 H 28.575 28.045833 v -0.52917 H 27.516667 26.9875 Z M 5.8208333,331.39582 v 0.52916 H 5.2916667 4.7625 v 0.52917 H 4.2333333 3.7041667 v 0.52917 H 3.175 2.6458333 v 0.52916 H 2.1166667 v 0.52917 h 0.5291666 v 0.52917 H 3.175 3.7041667 v 0.52916 H 4.2333333 4.7625 v 0.52917 h 0.5291667 0.5291666 v 0.52917 0.52916 0.52917 0.52917 0.52916 0.52917 0.52917 0.52916 0.52917 0.52917 0.52916 H 5.2916667 v 0.52917 0.52917 0.52916 0.52917 0.52917 h 0.5291666 v 0.52916 0.52917 H 6.35 v 0.52917 h 0.5291667 0.5291666 v 0.52916 H 7.9375 8.4666667 8.9958333 v 0.52917 0.52917 H 8.4666667 7.9375 v 0.52916 H 8.4666667 8.9958333 9.525 v -0.52916 -0.52917 -0.52917 h 0.529167 0.529166 0.529167 v 0.52917 h -0.529167 -0.529166 v 0.52917 h 0.529166 0.529167 0.529167 v -0.52917 -0.52917 H 12.170833 12.7 v -0.52916 h 0.529167 v -0.52917 -0.52917 -0.52916 h 0.529166 v -0.52917 -0.52917 H 14.2875 v -0.52916 -0.52917 h 0.529167 l 2e-6,-0.52916 0.529164,-1e-5 v -0.52916 h -0.529166 v -0.52917 H 14.2875 13.758333 13.229167 v 0.52917 H 12.7 12.170833 v -0.52917 H 11.641667 11.1125 v -0.52917 H 10.583333 10.054167 9.525 8.9958333 8.4666667 v -0.52916 -0.52917 -0.52917 -0.52916 -0.52917 -0.52917 -0.52916 -0.52917 -0.52917 -0.52916 -0.52917 -0.52917 -0.52916 -0.52917 H 7.9375 v -0.52917 H 7.4083333 v -0.52916 H 6.8791667 6.35 Z m 20.6374997,0 v 0.52916 h -0.529166 v 0.52917 H 25.4 v 0.52917 0.52916 0.52917 0.52917 0.52916 0.52917 0.52917 0.52916 0.52917 0.52917 0.52916 0.52917 0.52917 0.52916 H 24.870833 24.341667 23.8125 23.283333 22.754167 v 0.52917 H 22.225 21.695833 v 0.52917 H 21.166667 20.6375 v -0.52917 H 20.108333 19.579167 19.05 v 0.52917 h -0.529167 v 0.52916 H 19.05 v 0.52917 h 0.529167 v 0.52917 0.52916 h 0.529166 v 0.52917 0.52917 H 20.6375 v 0.52916 0.52917 0.52917 h 0.529167 v 0.52916 H 21.695833 22.225 v 0.52917 0.52917 h 0.529167 0.529166 0.529167 v -0.52917 h -0.529167 -0.529166 v -0.52917 h 0.529166 0.529167 0.529167 v 0.52917 0.52917 0.52916 H 24.870833 25.4 25.929167 v -0.52916 H 25.4 24.870833 v -0.52917 -0.52917 H 25.4 h 0.529167 0.529166 v -0.52916 h 0.529167 0.529167 v -0.52917 h 0.529166 v -0.52917 -0.52916 H 28.575 v -0.52917 -0.52917 -0.52916 -0.52917 -0.52917 h -0.529167 v -0.52916 -0.52917 -0.52917 -0.52916 -0.52917 -0.52917 -0.52916 -0.52917 -0.52917 -0.52916 -0.52917 H 28.575 29.104167 v -0.52917 h 0.529166 0.529167 v -0.52916 h 0.529167 0.529166 v -0.52917 H 31.75 v -0.52917 h -0.529167 v -0.52916 H 30.691667 30.1625 v -0.52917 h -0.529167 -0.529166 v -0.52917 H 28.575 28.045833 v -0.52916 H 27.516667 26.9875 Z"
       sodipodi:nodetypes="cccccccccccccccccccccccccccccccccccccccccccccccccccccccccccccccccccccccccccccccccccccccccccccccccccccccccccccccccccccccccccccccccccccccccccccccccccccccccccccccccccccccccccccccccccccccccccccccccccccccccccccccccccccccccccccccccccccccccccccccccccccccccccccccccccccccccccccccccccccccccccccccccccccccccccccccccccccccccccccccccccccccccccccccccccccccccccccccccccccccccccccccccccccccccccccccccccccccccccccccccccccccccccccccccccccccccccccccccccccccccccccccccccccccccccccccccccccccccccccccccccccccccccccccccccccccccccccccccccccccccccccccccccccccccccccccccccccccccccccccccccccccccccccccccccccccccccccccccccccccccccccccccccccccccccccccccccccccccccccccccccccccccccccccccccccccccccccccccccccccccccccccccccccccccccccccccccccccccccccccccccccccccccccccccccccccccccccccccccccccccccccccccccccccccccccccccccccccccccccccccccccccccccccccccccccccccccccccccccccccccccccccccccccccccccccccccccccccccccccccccccccccccccccccccccccccccccccccccccccccccccccccccccccccccccccccccccccccccccccccccccccccccccccccccccccccccccccccc" />
    <path
       style="fill:#652e03;fill-opacity:1;stroke:none;stroke-width:0.79375;stroke-miterlimit:4;stroke-dasharray:none;stroke-opacity:1"
       d="m 11.1125,346.21248 v 0.52917 h -0.529167 -0.529166 v 0.52917 h 0.529166 0.529167 0.529167 v -0.52917 -0.52917 z"
       id="path243" />
    <path
       style="fill:#652e03;fill-opacity:1;stroke:none;stroke-width:0.79375;stroke-miterlimit:4;stroke-dasharray:none;stroke-opacity:1"
       d="m 8.9958333,346.21248 v 0.52917 0.52917 H 8.4666667 7.9375 v 0.52916 H 8.4666667 8.9958333 9.525 v -0.52916 -0.52917 -0.52917 z"
       id="path242" />
    <path
       style="fill:#652e03;fill-opacity:1;stroke:none;stroke-width:0.79375;stroke-miterlimit:4;stroke-dasharray:none;stroke-opacity:1"
       d="m 11.1125,329.27915 v 0.52917 0.52916 h -0.529167 -0.529166 v 0.52917 h 0.529166 0.529167 0.529167 v -0.52917 -0.52916 -0.52917 z"
       id="path239" />
    <path
       style="fill:#652e03;fill-opacity:1;stroke:none;stroke-width:0.79375;stroke-miterlimit:4;stroke-dasharray:none;stroke-opacity:1"
       d="m 8.9958333,329.27915 v 0.52917 H 8.4666667 7.9375 v 0.52916 H 8.4666667 8.9958333 9.525 v -0.52916 -0.52917 z"
       id="path238" />
    <path
       style="fill:#652e03;fill-opacity:1;stroke:none;stroke-width:0.79375;stroke-miterlimit:4;stroke-dasharray:none;stroke-opacity:1"
       d="m 11.1125,312.34582 v 0.52916 0.52917 h -0.529167 -0.529166 v 0.52917 h 0.529166 0.529167 0.529167 v -0.52917 -0.52917 -0.52916 z"
       id="path235" />
    <path
       style="fill:#652e03;fill-opacity:1;stroke:none;stroke-width:0.79375;stroke-miterlimit:4;stroke-dasharray:none;stroke-opacity:1"
       d="m 8.9958333,312.34582 v 0.52916 0.52917 H 8.4666667 7.9375 v 0.52917 H 8.4666667 8.9958333 9.525 v -0.52917 -0.52917 -0.52916 z"
       id="path63" />
    <g
       id="g44"
       transform="translate(1.058329,50.800024)" />
    <path
       id="path438"
       style="fill:#f87b1b;fill-opacity:1;stroke:none;stroke-width:0.79375;stroke-miterlimit:4;stroke-dasharray:none;stroke-opacity:1"
       d="M 3.7041667 283.77082 L 3.7041667 284.29998 L 3.175 284.29998 L 2.6458333 284.29998 L 2.6458333 284.82915 L 3.175 284.82915 L 3.7041667 284.82915 L 3.7041667 285.35832 L 4.2333333 285.35832 L 4.7625 285.35832 L 4.7625 284.82915 L 4.7625 284.29998 L 4.7625 283.77082 L 4.2333333 283.77082 L 3.7041667 283.77082 z M 29.104167 283.77082 L 29.104167 284.29998 L 29.104167 284.82915 L 29.104167 285.35832 L 29.633333 285.35832 L 30.1625 285.35832 L 30.1625 284.82915 L 30.691667 284.82915 L 31.220833 284.82915 L 31.220833 284.29998 L 30.691667 284.29998 L 30.1625 284.29998 L 30.1625 283.77082 L 29.633333 283.77082 L 29.104167 283.77082 z M 3.7041667 299.11665 L 3.7041667 299.64582 L 3.175 299.64582 L 2.6458333 299.64582 L 2.6458333 300.17498 L 3.175 300.17498 L 3.7041667 300.17498 L 3.7041667 300.70415 L 4.2333333 300.70415 L 4.7625 300.70415 L 4.7625 300.17498 L 4.7625 299.64582 L 4.7625 299.11665 L 4.2333333 299.11665 L 3.7041667 299.11665 z M 29.104167 299.11665 L 29.104167 299.64582 L 29.104167 300.17498 L 29.104167 300.70415 L 29.633333 300.70415 L 30.1625 300.70415 L 30.1625 300.17498 L 30.691667 300.17498 L 31.220833 300.17498 L 31.220833 299.64582 L 30.691667 299.64582 L 30.1625 299.64582 L 30.1625 299.11665 L 29.633333 299.11665 L 29.104167 299.11665 z M 3.7041667 316.04998 L 3.7041667 316.57915 L 3.175 316.57915 L 2.6458333 316.57915 L 2.6458333 317.10832 L 3.175 317.10832 L 3.7041667 317.10832 L 3.7041667 317.63748 L 4.2333333 317.63748 L 4.7625 317.63748 L 4.7625 317.10832 L 4.7625 316.57915 L 4.7625 316.04998 L 4.2333333 316.04998 L 3.7041667 316.04998 z M 29.104167 316.04998 L 29.104167 316.57915 L 29.104167 317.10832 L 29.104167 317.63748 L 29.633333 317.63748 L 30.1625 317.63748 L 30.1625 317.10832 L 30.691667 317.10832 L 31.220833 317.10832 L 31.220833 316.57915 L 30.691667 316.57915 L 30.1625 316.57915 L 30.1625 316.04998 L 29.633333 316.04998 L 29.104167 316.04998 z M 3.7041667 332.98332 L 3.7041667 333.51248 L 3.175 333.51248 L 2.6458333 333.51248 L 2.6458333 334.04165 L 3.175 334.04165 L 3.7041667 334.04165 L 3.7041667 334.57082 L 4.2333333 334.57082 L 4.7625 334.57082 L 4.7625 334.04165 L 4.7625 333.51248 L 4.7625 332.98332 L 4.2333333 332.98332 L 3.7041667 332.98332 z M 29.104167 332.98332 L 29.104167 333.51248 L 29.104167 334.04165 L 29.104167 334.57082 L 29.633333 334.57082 L 30.1625 334.57082 L 30.1625 334.04165 L 30.691667 334.04165 L 31.220833 334.04165 L 31.220833 333.51248 L 30.691667 333.51248 L 30.1625 333.51248 L 30.1625 332.98332 L 29.633333 332.98332 L 29.104167 332.98332 z " />
    <path
       id="path445"
       style="fill:#c4d3ec;fill-opacity:1;stroke:none;stroke-width:0.79375;stroke-miterlimit:4;stroke-dasharray:none;stroke-opacity:1"
       d="m 6.35,286.41665 v 0.52917 0.52916 0.52917 0.52917 0.52916 0.52917 0.52917 0.52916 0.52917 0.52917 0.52916 H 5.8208333 v 0.52917 0.52917 0.52916 H 6.35 v -0.52916 -0.52917 h 0.5291667 v -0.52917 -0.52916 -0.52917 -0.52917 -0.52916 -0.52917 -0.52917 -0.52916 -0.52917 -0.52917 -0.52916 -0.52917 z m 16.404167,4.7625 v 0.52917 H 22.225 21.695833 v 0.52916 H 21.166667 20.6375 20.108333 19.579167 19.05 v 0.52917 h 0.529167 l 2e-6,0.52917 0.529164,0 H 20.6375 v -0.52917 h 0.529167 0.529166 0.529167 v -0.52917 h 0.529167 0.529166 v -0.52916 H 23.8125 v -0.52917 H 23.283333 Z M 6.35,301.76248 v 0.52917 0.52917 0.52916 0.52917 0.52917 0.52916 0.52917 0.52917 0.52916 0.52917 0.52917 H 5.8208333 v 0.52916 0.52917 0.52917 H 6.35 v -0.52917 -0.52917 h 0.5291667 v -0.52916 -0.52917 -0.52917 -0.52916 -0.52917 -0.52917 -0.52916 -0.52917 -0.52917 -0.52916 -0.52917 -0.52917 z m 16.404167,4.7625 v 0.52917 H 22.225 21.695833 v 0.52917 H 21.166667 20.6375 20.108333 19.579167 19.05 v 0.52916 h 0.529167 l 2e-6,0.52917 h 0.529164 0.529167 v -0.52917 h 0.529167 0.529166 0.529167 v -0.52916 h 0.529167 0.529166 v -0.52917 H 23.8125 v -0.52917 H 23.283333 Z M 6.35,318.69582 v 0.52916 0.52917 0.52917 0.52916 0.52917 0.52917 0.52916 0.52917 0.52917 0.52916 0.52917 H 5.8208333 v 0.52917 0.52916 0.52917 H 6.35 v -0.52917 -0.52916 h 0.5291667 v -0.52917 -0.52917 -0.52916 -0.52917 -0.52917 -0.52916 -0.52917 -0.52917 -0.52916 -0.52917 -0.52917 -0.52916 z m 16.404167,4.7625 v 0.52916 H 22.225 21.695833 v 0.52917 H 21.166667 20.6375 v -0.52917 H 20.108333 19.579167 19.05 v 0.52917 h 0.529167 v 0.52917 h 0.529166 v 0.52916 H 20.6375 v -0.52916 h 0.529167 0.529166 0.529167 v -0.52917 h 0.529167 0.529166 v -0.52917 H 23.8125 v -0.52916 H 23.283333 Z M 6.35,335.62915 v 0.52917 0.52916 0.52917 0.52917 0.52916 0.52917 0.52917 0.52916 0.52917 0.52917 0.52916 H 5.8208333 v 0.52917 0.52917 0.52916 H 6.35 v -0.52916 -0.52917 h 0.5291667 v -0.52917 -0.52916 -0.52917 -0.52917 -0.52916 -0.52917 -0.52917 -0.52916 -0.52917 -0.52917 -0.52916 -0.52917 z m 16.404167,4.7625 v 0.52917 H 22.225 21.695833 v 0.52916 H 21.166667 20.6375 v -0.52916 H 20.108333 19.579167 19.05 v 0.52916 h 0.529167 v 0.52917 h 0.529166 v 0.52917 H 20.6375 v -0.52917 h 0.529167 0.529166 0.529167 v -0.52917 h 0.529167 0.529166 v -0.52916 H 23.8125 v -0.52917 h -0.529167 z"
       sodipodi:nodetypes="cccccccccccccccccccccccccccccccccccccccccccccccccccccccccccccccccccccccccccccccccccccccccccccccccccccccccccccccccccccccccccccccccccccccccccccccccccccccccccccccccccccccccccccccccccccccccccccccccccccccccccccccccccccccccccccccccccccccccccccccccccc" />
    <path
       id="path452"
       style="fill:#6c8fd0;fill-opacity:1;stroke:none;stroke-width:0.79375;stroke-miterlimit:4;stroke-dasharray:none;stroke-opacity:1"
       d="m 13.229167,292.23748 v 0.52917 0.52917 H 12.7 v 0.52916 h -0.529167 v 0.52917 h -0.529166 v 0.52917 H 11.1125 v 0.52916 h -0.529167 v 0.52917 H 10.054167 9.525 v 0.52917 h 0.529167 0.529166 0.529167 0.529167 0.529166 H 12.7 v -0.52917 -0.52917 -0.52916 h 0.529167 v -0.52917 -0.52917 h 0.529166 v -0.52916 l 0.529169,0 -2e-6,-0.52917 h 0.529167 v -0.52917 H 14.2875 13.758333 Z m 14.2875,0 v 0.52917 0.52917 H 26.9875 v 0.52916 0.52917 h -0.529167 v 0.52917 h -0.529166 v 0.52916 H 25.4 v 0.52917 H 24.870833 24.341667 23.8125 v 0.52917 h 0.529167 0.529166 0.529167 0.529167 0.529166 v -0.52917 h 0.529167 0.529167 v -0.52917 -0.52916 h 0.529166 v -0.52917 -0.52917 -0.52916 -0.52917 -0.52917 z m -14.2875,15.34584 v 0.52916 0.52917 H 12.7 v 0.52917 h -0.529167 v 0.52916 h -0.529166 v 0.52917 H 11.1125 v 0.52917 h -0.529167 v 0.52916 H 10.054167 9.525 v 0.52917 h 0.529167 0.529166 0.529167 0.529167 0.529166 H 12.7 v -0.52917 -0.52916 -0.52917 h 0.529167 v -0.52917 -0.52916 h 0.529166 v -0.52917 h 0.529169 l -2e-6,-0.52917 h 0.529167 v -0.52916 H 14.2875 13.758333 Z m 14.2875,0 v 0.52916 0.52917 H 26.9875 v 0.52917 0.52916 h -0.529167 v 0.52917 h -0.529166 v 0.52917 H 25.4 v 0.52916 H 24.870833 24.341667 23.8125 v 0.52917 h 0.529167 0.529166 0.529167 0.529167 0.529166 v -0.52917 h 0.529167 0.529167 v -0.52916 -0.52917 h 0.529166 v -0.52917 -0.52916 -0.52917 -0.52917 -0.52916 z m -14.2875,16.40416 v 0.52917 0.52917 0.52916 H 12.7 v 0.52917 h -0.529167 v 0.52917 h -0.529166 v 0.52916 H 11.1125 v 0.52917 h -0.529167 v 0.52917 H 10.054167 9.525 v 0.52916 h 0.529167 0.529166 0.529167 0.529167 0.529166 H 12.7 v -0.52916 -0.52917 -0.52917 h 0.529167 v -0.52916 -0.52917 h 0.529166 v -0.52917 -0.52916 H 14.2875 v -0.52917 h 0.529167 v -0.52917 H 14.2875 13.758333 Z m 14.2875,0.52917 v 0.52917 0.52916 H 26.9875 v 0.52917 0.52917 h -0.529167 v 0.52916 h -0.529166 v 0.52917 H 25.4 v 0.52917 H 24.870833 24.341667 23.8125 v 0.52916 h 0.529167 0.529166 0.529167 0.529167 0.529166 v -0.52916 h 0.529167 0.529167 v -0.52917 -0.52917 h 0.529166 v -0.52916 -0.52917 -0.52917 -0.52916 -0.52917 z m -14.2875,16.40417 v 0.52916 0.52917 0.52917 H 12.7 v 0.52916 h -0.529167 v 0.52917 h -0.529166 v 0.52917 H 11.1125 v 0.52916 h -0.529167 v 0.52917 H 10.054167 9.525 v 0.52917 h 0.529167 0.529166 0.529167 0.529167 0.529166 H 12.7 v -0.52917 -0.52917 -0.52916 h 0.529167 v -0.52917 -0.52917 h 0.529166 v -0.52916 -0.52917 H 14.2875 v -0.52917 h 0.529167 v -0.52916 H 14.2875 13.758333 Z m 14.2875,0.52916 v 0.52917 0.52917 H 26.9875 v 0.52916 0.52917 h -0.529167 v 0.52917 h -0.529166 v 0.52916 H 25.4 v 0.52917 H 24.870833 24.341667 23.8125 v 0.52917 h 0.529167 0.529166 0.529167 0.529167 0.529166 v -0.52917 h 0.529167 0.529167 v -0.52917 -0.52916 h 0.529166 v -0.52917 -0.52917 -0.52916 -0.52917 -0.52917 z"
       sodipodi:nodetypes="cccccccccccccccccccccccccccccccccccccccccccccccccccccccccccccccccccccccccccccccccccccccccccccccccccccccccccccccccccccccccccccccccccccccccccccccccccccccccccccccccccccccccccccccccccccccccccccccccccccccccccccccccccccccccccccccccccccccccccccccccccccccccccccccccccccccccccccccccccccccccccc" />
    <path
       style="fill:#652e03;fill-opacity:1;stroke:none;stroke-width:0.79375;stroke-miterlimit:4;stroke-dasharray:none;stroke-opacity:1"
       d="m 24.341656,346.21248 v 0.52917 0.52917 0.52916 h 0.529166 0.529167 0.529167 v -0.52916 h -0.529167 -0.529167 v -0.52917 -0.52917 z"
       id="path245" />
    <path
       style="fill:#652e03;fill-opacity:1;stroke:none;stroke-width:0.79375;stroke-miterlimit:4;stroke-dasharray:none;stroke-opacity:1"
       d="m 22.224989,346.21248 v 0.52917 0.52917 h 0.529167 0.529166 0.529167 v -0.52917 h -0.529167 -0.529166 v -0.52917 z"
       id="path244" />
    <path
       style="fill:#652e03;fill-opacity:1;stroke:none;stroke-width:0.79375;stroke-miterlimit:4;stroke-dasharray:none;stroke-opacity:1"
       d="m 24.341656,329.27915 v 0.52917 0.52916 h 0.529166 0.529167 0.529167 v -0.52916 h -0.529167 -0.529167 v -0.52917 z"
       id="path241" />
    <path
       style="fill:#652e03;fill-opacity:1;stroke:none;stroke-width:0.79375;stroke-miterlimit:4;stroke-dasharray:none;stroke-opacity:1"
       d="m 22.224989,329.27915 v 0.52917 0.52916 0.52917 h 0.529167 0.529166 0.529167 v -0.52917 h -0.529167 -0.529166 v -0.52916 -0.52917 z"
       id="path240" />
    <path
       style="fill:#652e03;fill-opacity:1;stroke:none;stroke-width:0.79375;stroke-miterlimit:4;stroke-dasharray:none;stroke-opacity:1"
       d="m 24.341656,312.34582 v 0.52916 0.52917 0.52917 h 0.529166 0.529167 0.529167 v -0.52917 h -0.529167 -0.529167 v -0.52917 -0.52916 z"
       id="path237" />
    <path
       style="fill:#652e03;fill-opacity:1;stroke:none;stroke-width:0.79375;stroke-miterlimit:4;stroke-dasharray:none;stroke-opacity:1"
       d="m 22.224989,312.34582 v 0.52916 0.52917 0.52917 h 0.529167 0.529166 0.529167 v -0.52917 h -0.529167 -0.529166 v -0.52917 -0.52916 z"
       id="path236" />
    <path
       id="path431"
       style="fill:#000000;fill-opacity:1;stroke:none;stroke-width:0.79375;stroke-miterlimit:4;stroke-dasharray:none;stroke-opacity:1"
       d="m 5.8208333,282.18332 v 0.52916 H 6.35 6.8791667 7.4083333 v -0.52916 H 6.8791667 6.35 Z m 1.5875,0.52916 v 0.52917 H 7.9375 v -0.52917 z M 7.9375,283.24165 v 0.52917 0.52916 0.52917 0.52917 0.52916 0.52917 0.52917 0.52916 0.52917 0.52917 0.52916 0.52917 0.52917 0.52916 h 0.5291667 v -0.52916 -0.52917 -0.52917 -0.52916 -0.52917 -0.52917 -0.52916 -0.52917 -0.52917 -0.52916 -0.52917 -0.52917 -0.52916 -0.52917 z m 0.5291667,7.40833 v 0.52917 h 0.5291666 0.529167 0.5291667 0.529166 0.529167 v -0.52917 H 10.583333 10.054167 9.5250003 8.9958333 Z m 2.6458333,0.52917 v 0.52917 h 0.529167 0.529166 v -0.52917 h -0.529166 z m 1.058333,0.52917 v 0.52916 H 12.7 h 0.529167 0.529166 0.529167 0.529167 v -0.52916 H 14.2875 13.758333 13.229167 12.7 Z m 2.645834,0.52916 v 0.52917 h 0.529166 v -0.52917 z m 0,0.52917 H 14.2875 l 2e-6,0.52917 -0.529169,0 v 0.52916 H 14.2875 v -0.52916 h 0.529167 z m -1.058334,1.05833 h -0.529166 v 0.52917 0.52917 h 0.529166 v -0.52917 z m -0.529166,1.05834 H 12.7 v 0.52916 0.52917 0.52917 h 0.529167 v -0.52917 -0.52917 z M 12.7,296.47082 H 12.170833 11.641667 11.1125 10.583333 10.054167 9.5250003 8.9958333 8.4666667 7.9375 7.4083333 v 0.52916 H 7.9375 8.4666667 8.9958333 9.5250003 10.054167 10.583333 11.1125 11.641667 12.170833 12.7 Z m -5.2916667,0 v -0.52917 H 6.8791667 6.35 v 0.52917 H 6.8791667 Z M 6.35,295.94165 v -0.52917 -0.52916 H 5.8208333 v 0.52916 0.52917 z m -0.5291667,-1.05833 v -0.52917 -0.52917 -0.52916 -0.52917 -0.52917 H 5.2916667 v 0.52917 0.52917 0.52916 0.52917 0.52917 z m 0,-2.64584 H 6.35 v -0.52916 -0.52917 -0.52917 -0.52916 -0.52917 -0.52917 -0.52916 -0.52917 -0.52917 -0.52916 -0.52917 H 5.8208333 v 0.52917 0.52916 0.52917 0.52917 0.52916 0.52917 0.52917 0.52916 0.52917 0.52917 z m 0,-5.82083 v -0.52917 H 5.2916667 4.7625 v 0.52917 H 5.2916667 Z M 4.7625,285.88748 v -0.52916 H 4.2333333 3.7041667 v 0.52916 h 0.5291666 z m -1.0583333,-0.52916 v -0.52917 H 3.175 2.6458333 v 0.52917 H 3.175 Z m -1.0583334,-0.52917 v -0.52917 H 2.1166667 v 0.52917 z m 0,-0.52917 H 3.175 3.7041667 v -0.52916 H 3.175 2.6458333 Z m 1.0583334,-0.52916 H 4.2333333 4.7625 v -0.52917 H 4.2333333 3.7041667 Z M 4.7625,283.24165 h 0.5291667 0.5291666 v -0.52917 H 5.2916667 4.7625 Z m 21.695833,-1.05833 v 0.52916 h 0.529167 0.529167 0.529166 v -0.52916 H 27.516667 26.9875 Z m 1.5875,0.52916 v 0.52917 H 28.575 29.104167 v -0.52917 H 28.575 Z m 1.058334,0.52917 v 0.52917 h 0.529166 0.529167 v -0.52917 h -0.529167 z m 1.058333,0.52917 v 0.52916 h 0.529167 0.529166 v -0.52916 h -0.529166 z m 1.058333,0.52916 v 0.52917 H 31.75 v -0.52917 z m 0,0.52917 H 30.691667 30.1625 v 0.52917 h 0.529167 0.529166 z m -1.058333,0.52917 h -0.529167 -0.529166 v 0.52916 h 0.529166 0.529167 z m -1.058333,0.52916 H 28.575 28.045833 v 0.52917 H 28.575 29.104167 Z m -1.058334,0.52917 h -0.529166 v 0.52917 0.52916 0.52917 0.52917 0.52916 0.52917 0.52917 0.52916 0.52917 0.52917 0.52916 h 0.529166 v -0.52916 -0.52917 -0.52917 -0.52916 -0.52917 -0.52917 -0.52916 -0.52917 -0.52917 -0.52916 z m 0,5.82083 v 0.52917 0.52917 0.52916 0.52917 0.52917 H 28.575 v -0.52917 -0.52917 -0.52916 -0.52917 -0.52917 z m 0,2.64584 h -0.529166 v 0.52916 0.52917 h 0.529166 v -0.52917 z m -0.529166,1.05833 H 26.9875 26.458333 v 0.52917 h 0.529167 0.529167 z m -1.058334,0.52917 H 25.929167 25.4 24.870833 24.341667 23.8125 23.283333 22.754167 22.225 21.695833 21.166667 v 0.52916 h 0.529166 0.529167 0.529167 0.529166 0.529167 0.529167 0.529166 0.529167 0.529167 0.529166 z m -5.291666,0 v -0.52917 -0.52917 -0.52916 H 20.6375 v 0.52916 0.52917 0.52917 z m -0.529167,-1.5875 v -0.52917 -0.52917 h -0.529167 v 0.52917 0.52917 z m -0.529167,-1.05834 v -0.52916 h -0.529164 l -2e-6,-0.52917 H 19.05 v 0.52917 h 0.529167 v 0.52916 z M 19.05,292.76665 v -0.52917 h -0.529167 v 0.52917 z m 0,-0.52917 h 0.529167 0.529166 0.529167 0.529167 0.529166 v -0.52916 H 21.166667 20.6375 20.108333 19.579167 19.05 Z m 2.645833,-0.52916 H 22.225 22.754167 v -0.52917 H 22.225 21.695833 Z m 1.058334,-0.52917 H 23.283333 23.8125 24.341667 24.870833 25.4 v -0.52917 H 24.870833 24.341667 23.8125 23.283333 22.754167 Z M 25.4,290.64998 h 0.529167 v -0.52916 -0.52917 -0.52917 -0.52916 -0.52917 -0.52917 -0.52916 -0.52917 -0.52917 -0.52916 -0.52917 -0.52917 -0.52916 -0.52917 H 25.4 v 0.52917 0.52916 0.52917 0.52917 0.52916 0.52917 0.52917 0.52916 0.52917 0.52917 0.52916 0.52917 0.52917 z m 0.529167,-7.40833 h 0.529166 v -0.52917 H 25.929167 Z M 6.35,283.77082 v 0.52916 0.52917 h 0.5291667 v -0.52917 -0.52916 z m 20.6375,0 v 0.52916 0.52917 h 0.529167 v -0.52917 -0.52916 z M 5.8208333,297.52915 v 0.52917 H 6.35 6.8791667 7.4083333 v -0.52917 H 6.8791667 6.35 Z m 1.5875,0.52917 v 0.52916 H 7.9375 v -0.52916 z M 7.9375,298.58748 v 0.52917 0.52917 0.52916 0.52917 0.52917 0.52916 0.52917 0.52917 0.52916 0.52917 0.52917 0.52916 0.52917 0.52917 h 0.5291667 v -0.52917 -0.52917 -0.52916 -0.52917 -0.52917 -0.52916 -0.52917 -0.52917 -0.52916 -0.52917 -0.52917 -0.52916 -0.52917 -0.52917 z m 0.5291667,7.40834 v 0.52916 h 0.5291666 0.529167 0.5291667 0.529166 0.529167 v -0.52916 H 10.583333 10.054167 9.5250003 8.9958333 Z m 2.6458333,0.52916 v 0.52917 h 0.529167 0.529166 v -0.52917 h -0.529166 z m 1.058333,0.52917 v 0.52917 H 12.7 h 0.529167 0.529166 0.529167 0.529167 v -0.52917 H 14.2875 13.758333 13.229167 12.7 Z m 2.645834,0.52917 v 0.52916 h 0.529166 v -0.52916 z m 0,0.52916 H 14.2875 l 2e-6,0.52917 h -0.529169 v 0.52917 H 14.2875 v -0.52917 h 0.529167 z m -1.058334,1.05834 h -0.529166 v 0.52916 0.52917 h 0.529166 v -0.52917 z m -0.529166,1.05833 H 12.7 v 0.52917 0.52916 0.52917 h 0.529167 v -0.52917 -0.52916 z M 12.7,311.81665 H 12.170833 11.641667 11.1125 10.583333 10.054167 9.5250003 8.9958333 8.4666667 7.9375 7.4083333 v 0.52917 H 7.9375 8.4666667 8.9958333 9.5250003 10.054167 10.583333 11.1125 11.641667 12.170833 12.7 Z m -5.2916667,0 v -0.52917 H 6.8791667 6.35 v 0.52917 H 6.8791667 Z M 6.35,311.28748 v -0.52916 -0.52917 H 5.8208333 v 0.52917 0.52916 z m -0.5291667,-1.05833 v -0.52917 -0.52916 -0.52917 -0.52917 -0.52916 H 5.2916667 v 0.52916 0.52917 0.52917 0.52916 0.52917 z m 0,-2.64583 H 6.35 v -0.52917 -0.52917 -0.52916 -0.52917 -0.52917 -0.52916 -0.52917 -0.52917 -0.52916 -0.52917 -0.52917 H 5.8208333 v 0.52917 0.52917 0.52916 0.52917 0.52917 0.52916 0.52917 0.52917 0.52916 0.52917 z m 0,-5.82084 v -0.52916 H 5.2916667 4.7625 v 0.52916 H 5.2916667 Z M 4.7625,301.23332 v -0.52917 H 4.2333333 3.7041667 v 0.52917 h 0.5291666 z m -1.0583333,-0.52917 v -0.52917 H 3.175 2.6458333 v 0.52917 H 3.175 Z m -1.0583334,-0.52917 v -0.52916 H 2.1166667 v 0.52916 z m 0,-0.52916 H 3.175 3.7041667 v -0.52917 H 3.175 2.6458333 Z m 1.0583334,-0.52917 H 4.2333333 4.7625 v -0.52917 H 4.2333333 3.7041667 Z M 4.7625,298.58748 h 0.5291667 0.5291666 v -0.52916 H 5.2916667 4.7625 Z m 21.695833,-1.05833 v 0.52917 h 0.529167 0.529167 0.529166 v -0.52917 H 27.516667 26.9875 Z m 1.5875,0.52917 v 0.52916 H 28.575 29.104167 v -0.52916 H 28.575 Z m 1.058334,0.52916 v 0.52917 h 0.529166 0.529167 v -0.52917 h -0.529167 z m 1.058333,0.52917 v 0.52917 h 0.529167 0.529166 v -0.52917 h -0.529166 z m 1.058333,0.52917 v 0.52916 H 31.75 v -0.52916 z m 0,0.52916 H 30.691667 30.1625 v 0.52917 h 0.529167 0.529166 z m -1.058333,0.52917 h -0.529167 -0.529166 v 0.52917 h 0.529166 0.529167 z m -1.058333,0.52917 H 28.575 28.045833 v 0.52916 H 28.575 29.104167 Z m -1.058334,0.52916 h -0.529166 v 0.52917 0.52917 0.52916 0.52917 0.52917 0.52916 0.52917 0.52917 0.52916 0.52917 0.52917 h 0.529166 v -0.52917 -0.52917 -0.52916 -0.52917 -0.52917 -0.52916 -0.52917 -0.52917 -0.52916 -0.52917 z m 0,5.82084 v 0.52916 0.52917 0.52917 0.52916 0.52917 H 28.575 v -0.52917 -0.52916 -0.52917 -0.52917 -0.52916 z m 0,2.64583 h -0.529166 v 0.52917 0.52916 h 0.529166 v -0.52916 z m -0.529166,1.05833 H 26.9875 26.458333 v 0.52917 h 0.529167 0.529167 z m -1.058334,0.52917 H 25.929167 25.4 24.870833 24.341667 23.8125 23.283333 22.754167 22.225 21.695833 21.166667 v 0.52917 h 0.529166 0.529167 0.529167 0.529166 0.529167 0.529167 0.529166 0.529167 0.529167 0.529166 z m -5.291666,0 v -0.52917 -0.52916 -0.52917 H 20.6375 v 0.52917 0.52916 0.52917 z m -0.529167,-1.5875 v -0.52917 -0.52916 h -0.529167 v 0.52916 0.52917 z m -0.529167,-1.05833 v -0.52917 h -0.529164 l -2e-6,-0.52917 H 19.05 v 0.52917 h 0.529167 v 0.52917 z M 19.05,308.11248 v -0.52916 h -0.529167 v 0.52916 z m 0,-0.52916 h 0.529167 0.529166 0.529167 0.529167 0.529166 v -0.52917 H 21.166667 20.6375 20.108333 19.579167 19.05 Z m 2.645833,-0.52917 H 22.225 22.754167 v -0.52917 H 22.225 21.695833 Z m 1.058334,-0.52917 H 23.283333 23.8125 24.341667 24.870833 25.4 v -0.52916 H 24.870833 24.341667 23.8125 23.283333 22.754167 Z M 25.4,305.99582 h 0.529167 v -0.52917 -0.52917 -0.52916 -0.52917 -0.52917 -0.52916 -0.52917 -0.52917 -0.52916 -0.52917 -0.52917 -0.52916 -0.52917 -0.52917 H 25.4 v 0.52917 0.52917 0.52916 0.52917 0.52917 0.52916 0.52917 0.52917 0.52916 0.52917 0.52917 0.52916 0.52917 z m 0.529167,-7.40834 h 0.529166 v -0.52916 H 25.929167 Z M 6.35,299.11665 v 0.52917 0.52916 h 0.5291667 v -0.52916 -0.52917 z m 20.6375,0 v 0.52917 0.52916 h 0.529167 v -0.52916 -0.52917 z M 5.8208333,314.46248 v 0.52917 H 6.35 6.8791667 7.4083333 v -0.52917 H 6.8791667 6.35 Z m 1.5875,0.52917 v 0.52917 H 7.9375 v -0.52917 z M 7.9375,315.52082 v 0.52916 0.52917 0.52917 0.52916 0.52917 0.52917 0.52916 0.52917 0.52917 0.52916 0.52917 0.52917 0.52916 0.52917 h 0.5291667 v -0.52917 -0.52916 -0.52917 -0.52917 -0.52916 -0.52917 -0.52917 -0.52916 -0.52917 -0.52917 -0.52916 -0.52917 -0.52917 -0.52916 z m 0.5291667,7.40833 v 0.52917 h 0.5291666 0.529167 0.5291667 0.529166 0.529167 v -0.52917 H 10.583333 10.054167 9.5250003 8.9958333 Z m 2.6458333,0.52917 v 0.52916 h 0.529167 0.529166 v -0.52916 h -0.529166 z m 1.058333,0.52916 v 0.52917 H 12.7 13.229167 v -0.52917 H 12.7 Z m 1.058334,0 h 0.529166 0.529167 0.529167 v -0.52916 H 14.2875 13.758333 13.229167 Z m 1.5875,0 v 0.52917 H 14.2875 v 0.52917 h 0.529167 l 2e-6,-0.52917 h 0.529164 v -0.52917 z m -0.529167,1.05834 h -0.529167 v 0.52916 0.52917 H 14.2875 v -0.52917 z m -0.529167,1.05833 h -0.529166 v 0.52917 0.52916 h 0.529166 v -0.52916 z m -0.529166,1.05833 H 12.7 v 0.52917 0.52917 0.52916 h 0.529167 v -0.52916 -0.52917 z M 12.7,328.74998 H 12.170833 11.641667 11.1125 10.583333 10.054167 9.5250003 8.9958333 8.4666667 7.9375 7.4083333 v 0.52917 H 7.9375 8.4666667 8.9958333 9.5250003 10.054167 10.583333 11.1125 11.641667 12.170833 12.7 Z m -5.2916667,0 v -0.52916 H 6.8791667 6.35 v 0.52916 H 6.8791667 Z M 6.35,328.22082 v -0.52917 -0.52917 H 5.8208333 v 0.52917 0.52917 z m -0.5291667,-1.05834 v -0.52916 -0.52917 -0.52917 -0.52916 -0.52917 H 5.2916667 v 0.52917 0.52916 0.52917 0.52917 0.52916 z m 0,-2.64583 H 6.35 v -0.52917 -0.52916 -0.52917 -0.52917 -0.52916 -0.52917 -0.52917 -0.52916 -0.52917 -0.52917 -0.52916 H 5.8208333 v 0.52916 0.52917 0.52917 0.52916 0.52917 0.52917 0.52916 0.52917 0.52917 0.52916 z m 0,-5.82083 v -0.52917 H 5.2916667 4.7625 v 0.52917 H 5.2916667 Z M 4.7625,318.16665 v -0.52917 H 4.2333333 3.7041667 v 0.52917 h 0.5291666 z m -1.0583333,-0.52917 v -0.52916 H 3.175 2.6458333 v 0.52916 H 3.175 Z m -1.0583334,-0.52916 v -0.52917 H 2.1166667 v 0.52917 z m 0,-0.52917 H 3.175 3.7041667 v -0.52917 H 3.175 2.6458333 Z m 1.0583334,-0.52917 H 4.2333333 4.7625 v -0.52916 H 4.2333333 3.7041667 Z M 4.7625,315.52082 h 0.5291667 0.5291666 v -0.52917 H 5.2916667 4.7625 Z m 21.695833,-1.05834 v 0.52917 h 0.529167 0.529167 0.529166 v -0.52917 H 27.516667 26.9875 Z m 1.5875,0.52917 v 0.52917 H 28.575 29.104167 v -0.52917 H 28.575 Z m 1.058334,0.52917 v 0.52916 h 0.529166 0.529167 v -0.52916 h -0.529167 z m 1.058333,0.52916 v 0.52917 h 0.529167 0.529166 v -0.52917 h -0.529166 z m 1.058333,0.52917 v 0.52917 H 31.75 v -0.52917 z m 0,0.52917 H 30.691667 30.1625 v 0.52916 h 0.529167 0.529166 z m -1.058333,0.52916 h -0.529167 -0.529166 v 0.52917 h 0.529166 0.529167 z m -1.058333,0.52917 H 28.575 28.045833 v 0.52917 H 28.575 29.104167 Z m -1.058334,0.52917 h -0.529166 v 0.52916 0.52917 0.52917 0.52916 0.52917 0.52917 0.52916 0.52917 0.52917 0.52916 0.52917 h 0.529166 v -0.52917 -0.52916 -0.52917 -0.52917 -0.52916 -0.52917 -0.52917 -0.52916 -0.52917 -0.52917 z m 0,5.82083 v 0.52917 0.52916 0.52917 0.52917 0.52916 H 28.575 v -0.52916 -0.52917 -0.52917 -0.52916 -0.52917 z m 0,2.64583 h -0.529166 v 0.52917 0.52917 h 0.529166 v -0.52917 z m -0.529166,1.05834 H 26.9875 26.458333 v 0.52916 h 0.529167 0.529167 z m -1.058334,0.52916 H 25.929167 25.4 24.870833 24.341667 23.8125 23.283333 22.754167 22.225 21.695833 21.166667 v 0.52917 h 0.529166 0.529167 0.529167 0.529166 0.529167 0.529167 0.529166 0.529167 0.529167 0.529166 z m -5.291666,0 v -0.52916 -0.52917 -0.52917 H 20.6375 v 0.52917 0.52917 0.52916 z m -0.529167,-1.5875 v -0.52916 -0.52917 h -0.529167 v 0.52917 0.52916 z m -0.529167,-1.05833 v -0.52917 -0.52916 h -0.529166 v 0.52916 0.52917 z m -0.529166,-1.05833 v -0.52917 H 19.05 v 0.52917 z M 19.05,324.51665 v -0.52917 h -0.529167 v 0.52917 z m 0,-0.52917 h 0.529167 0.529166 l 0.52917,10e-6 -3e-6,0.52916 h 0.529167 0.529166 v -0.52917 H 21.166667 20.6375 v -0.52916 H 20.108333 19.579167 19.05 Z m 2.645833,0 H 22.225 22.754167 v -0.52916 H 22.225 21.695833 Z m 1.058334,-0.52916 H 23.283333 23.8125 24.341667 24.870833 25.4 v -0.52917 H 24.870833 24.341667 23.8125 23.283333 22.754167 Z M 25.4,322.92915 h 0.529167 v -0.52917 -0.52916 -0.52917 -0.52917 -0.52916 -0.52917 -0.52917 -0.52916 -0.52917 -0.52917 -0.52916 -0.52917 -0.52917 -0.52916 H 25.4 v 0.52916 0.52917 0.52917 0.52916 0.52917 0.52917 0.52916 0.52917 0.52917 0.52916 0.52917 0.52917 0.52916 z m 0.529167,-7.40833 h 0.529166 v -0.52917 H 25.929167 Z M 6.35,316.04998 v 0.52917 0.52917 h 0.5291667 v -0.52917 -0.52917 z m 20.6375,0 v 0.52917 0.52917 h 0.529167 v -0.52917 -0.52917 z M 5.8208333,331.39582 v 0.52916 H 6.35 6.8791667 7.4083333 v -0.52916 H 6.8791667 6.35 Z m 1.5875,0.52916 v 0.52917 H 7.9375 v -0.52917 z M 7.9375,332.45415 v 0.52917 0.52916 0.52917 0.52917 0.52916 0.52917 0.52917 0.52916 0.52917 0.52917 0.52916 0.52917 0.52917 0.52916 h 0.5291667 v -0.52916 -0.52917 -0.52917 -0.52916 -0.52917 -0.52917 -0.52916 -0.52917 -0.52917 -0.52916 -0.52917 -0.52917 -0.52916 -0.52917 z m 0.5291667,7.40833 v 0.52917 h 0.5291666 0.529167 0.5291667 0.529166 0.529167 v -0.52917 H 10.583333 10.054167 9.5250003 8.9958333 Z m 2.6458333,0.52917 v 0.52917 h 0.529167 0.529166 v -0.52917 h -0.529166 z m 1.058333,0.52917 v 0.52916 H 12.7 13.229167 v -0.52916 H 12.7 Z m 1.058334,0 h 0.529166 0.529167 0.529167 v -0.52917 H 14.2875 13.758333 13.229167 Z m 1.5875,0 v 0.52916 H 14.2875 v 0.52917 h 0.529167 l 2e-6,-0.52916 0.529164,-1e-5 v -0.52916 z m -0.529167,1.05833 h -0.529167 v 0.52917 0.52916 H 14.2875 v -0.52916 z m -0.529167,1.05833 h -0.529166 v 0.52917 0.52917 h 0.529166 v -0.52917 z m -0.529166,1.05834 H 12.7 v 0.52916 0.52917 0.52917 h 0.529167 v -0.52917 -0.52917 z M 12.7,345.68332 H 12.170833 11.641667 11.1125 10.583333 10.054167 9.5250003 8.9958333 8.4666667 7.9375 7.4083333 v 0.52916 H 7.9375 8.4666667 8.9958333 9.5250003 10.054167 10.583333 11.1125 11.641667 12.170833 12.7 Z m -5.2916667,0 v -0.52917 H 6.8791667 6.35 v 0.52917 H 6.8791667 Z M 6.35,345.15415 v -0.52917 -0.52916 H 5.8208333 v 0.52916 0.52917 z m -0.5291667,-1.05833 v -0.52917 -0.52917 -0.52916 -0.52917 -0.52917 H 5.2916667 v 0.52917 0.52917 0.52916 0.52917 0.52917 z m 0,-2.64584 H 6.35 v -0.52916 -0.52917 -0.52917 -0.52916 -0.52917 -0.52917 -0.52916 -0.52917 -0.52917 -0.52916 -0.52917 H 5.8208333 v 0.52917 0.52916 0.52917 0.52917 0.52916 0.52917 0.52917 0.52916 0.52917 0.52917 z m 0,-5.82083 v -0.52917 H 5.2916667 4.7625 v 0.52917 H 5.2916667 Z M 4.7625,335.09998 v -0.52916 H 4.2333333 3.7041667 v 0.52916 h 0.5291666 z m -1.0583333,-0.52916 v -0.52917 H 3.175 2.6458333 v 0.52917 H 3.175 Z m -1.0583334,-0.52917 v -0.52917 H 2.1166667 v 0.52917 z m 0,-0.52917 H 3.175 3.7041667 v -0.52916 H 3.175 2.6458333 Z m 1.0583334,-0.52916 H 4.2333333 4.7625 v -0.52917 H 4.2333333 3.7041667 Z M 4.7625,332.45415 h 0.5291667 0.5291666 v -0.52917 H 5.2916667 4.7625 Z m 21.695833,-1.05833 v 0.52916 h 0.529167 0.529167 0.529166 v -0.52916 H 27.516667 26.9875 Z m 1.5875,0.52916 v 0.52917 H 28.575 29.104167 v -0.52917 H 28.575 Z m 1.058334,0.52917 v 0.52917 h 0.529166 0.529167 v -0.52917 h -0.529167 z m 1.058333,0.52917 v 0.52916 h 0.529167 0.529166 v -0.52916 h -0.529166 z m 1.058333,0.52916 v 0.52917 H 31.75 v -0.52917 z m 0,0.52917 H 30.691667 30.1625 v 0.52917 h 0.529167 0.529166 z m -1.058333,0.52917 h -0.529167 -0.529166 v 0.52916 h 0.529166 0.529167 z m -1.058333,0.52916 H 28.575 28.045833 v 0.52917 H 28.575 29.104167 Z m -1.058334,0.52917 h -0.529166 v 0.52917 0.52916 0.52917 0.52917 0.52916 0.52917 0.52917 0.52916 0.52917 0.52917 0.52916 h 0.529166 v -0.52916 -0.52917 -0.52917 -0.52916 -0.52917 -0.52917 -0.52916 -0.52917 -0.52917 -0.52916 z m 0,5.82083 v 0.52917 0.52917 0.52916 0.52917 0.52917 H 28.575 v -0.52917 -0.52917 -0.52916 -0.52917 -0.52917 z m 0,2.64584 h -0.529166 v 0.52916 0.52917 h 0.529166 v -0.52917 z m -0.529166,1.05833 H 26.9875 26.458333 v 0.52917 h 0.529167 0.529167 z m -1.058334,0.52917 H 25.929167 25.4 24.870833 24.341667 23.8125 23.283333 22.754167 22.225 21.695833 21.166667 v 0.52916 h 0.529166 0.529167 0.529167 0.529166 0.529167 0.529167 0.529166 0.529167 0.529167 0.529166 z m -5.291666,0 v -0.52917 -0.52917 -0.52916 H 20.6375 v 0.52916 0.52917 0.52917 z m -0.529167,-1.5875 v -0.52917 -0.52917 h -0.529167 v 0.52917 0.52917 z m -0.529167,-1.05834 v -0.52916 -0.52917 h -0.529166 v 0.52917 0.52916 z m -0.529166,-1.05833 v -0.52917 H 19.05 v 0.52917 z M 19.05,341.44998 v -0.52916 h -0.529167 v 0.52916 z m 0,-0.52916 h 0.529167 0.529166 0.52917 l -3e-6,0.52916 h 0.529167 0.529166 v -0.52916 H 21.166667 20.6375 v -0.52917 H 20.108333 19.579167 19.05 Z m 2.645833,0 H 22.225 22.754167 v -0.52917 H 22.225 21.695833 Z m 1.058334,-0.52917 H 23.283333 23.8125 24.341667 24.870833 25.4 v -0.52917 H 24.870833 24.341667 23.8125 23.283333 22.754167 Z M 25.4,339.86248 h 0.529167 v -0.52916 -0.52917 -0.52917 -0.52916 -0.52917 -0.52917 -0.52916 -0.52917 -0.52917 -0.52916 -0.52917 -0.52917 -0.52916 -0.52917 H 25.4 v 0.52917 0.52916 0.52917 0.52917 0.52916 0.52917 0.52917 0.52916 0.52917 0.52917 0.52916 0.52917 0.52917 z m 0.529167,-7.40833 h 0.529166 v -0.52917 H 25.929167 Z M 6.35,332.98332 v 0.52916 0.52917 h 0.5291667 v -0.52917 -0.52916 z m 20.6375,0 v 0.52916 0.52917 h 0.529167 v -0.52917 -0.52916 z"
       sodipodi:nodetypes="cccccccccccccccccccccccccccccccccccccccccccccccccccccccccccccccccccccccccccccccccccccccccccccccccccccccccccccccccccccccccccccccccccccccccccccccccccccccccccccccccccccccccccccccccccccccccccccccccccccccccccccccccccccccccccccccccccccccccccccccccccccccccccccccccccccccccccccccccccccccccccccccccccccccccccccccccccccccccccccccccccccccccccccccccccccccccccccccccccccccccccccccccccccccccccccccccccccccccccccccccccccccccccccccccccccccccccccccccccccccccccccccccccccccccccccccccccccccccccccccccccccccccccccccccccccccccccccccccccccccccccccccccccccccccccccccccccccccccccccccccccccccccccccccccccccccccccccccccccccccccccccccccccccccccccccccccccccccccccccccccccccccccccccccccccccccccccccccccccccccccccccccccccccccccccccccccccccccccccccccccccccccccccccccccccccccccccccccccccccccccccccccccccccccccccccccccccccccccccccccccccccccccccccccccccccccccccccccccccccccccccccccccccccccccccccccccccccccccccccccccccccccccccccccccccccccccccccccccccccccccccccccccccccccccccccccccccccccccccccccccccccccccccccccccccccccccccccccccccccccccccccccccccccccccccccccccccccccccccccccccccccccccccccccccccccccccccccccccccccccccccccccccccccccccccccccccccccccccccccccccccccccccccccccccccccccccccccccccccccccccccccccccccccccccccccccccccccccccccccccccccccccccccccccccccccccccccccccccccccccccccccccccccccccccccccccccccccccccccccccccccccccccccccccccccccccccccccccccccccccccccccccccccccccccccccccccccccccccccccccccccccccccccccccccccccccccccccccccccccccccccccccccccccccccccccccccccccccccccccccccccccccccccccccccccccccccccccccccccccccccccccccccccccccccccccccccccccccccccccccccccccccccccccccccccccccccccccccccccccccccccccccccccccccccccccccccccccccccccccccccccccccccccccccccccccccccccccccccccccccccccccccccccccccccccccccccccccccccccccccccccccccccccccccccccccccccccccccccccccccccccccccccccccccccccccccccccccccccccccccccccccccccccccccccccccccccccccccccccccccccccccccccccccccccccccccccccccccccccccccccccccccccccccccccccccccccccccccccccccccccccccccccccccccccccccccccccccccccccc" />
  </g>
</svg>
